<svg xmlns="http://www.w3.org/2000/svg" viewBox="0 0 400 200" fill="none">
  <rect width="400" height="200" rx="8" fill="#27272a" stroke="#3f3f46"/>
  <text x="12" y="20" fill="#fafafa" font-size="11" font-weight="bold">Cash Forecast</text>
  <rect x="12" y="28" width="376" height="120" rx="4" fill="#18181b" stroke="#3f3f46"/>
  <path d="M24 130 L80 120 L136 110 L192 100 L248 90 L304 80 L360 70" stroke="#ef4444" stroke-width="2" fill="none"/>
  <path d="M24 130 L80 115 L136 105 L192 92 L248 82 L304 72 L360 60" stroke="#facc15" stroke-width="2" fill="none" stroke-dasharray="4"/>
  <path d="M24 130 L80 110 L136 95 L192 80 L248 68 L304 55 L360 45" stroke="#22c55e" stroke-width="2" fill="none" stroke-dasharray="4"/>
  <text x="24" y="42" fill="#ef4444" font-size="7"> Current</text>
  <text x="80" y="42" fill="#facc15" font-size="7">- - Discipline</text>
  <text x="160" y="42" fill="#22c55e" font-size="7">- - Growth</text>
  <text x="20" y="58" fill="#a1a1aa" font-size="7" font-family="monospace">9-MONTH PROJECTION</text>
  <rect x="12" y="156" width="376" height="30" rx="4" fill="#18181b" stroke="#facc15"/>
  <text x="20" y="174" fill="#facc15" font-size="9">YELLOW: Critical cash month identified</text>
</svg>
